<?xml version="1.0" encoding="utf-8"?>
<!-- Generator: Adobe Illustrator 17.0.0, SVG Export Plug-In . SVG Version: 6.00 Build 0)  -->
<!DOCTYPE svg PUBLIC "-//W3C//DTD SVG 1.1//EN" "http://www.w3.org/Graphics/SVG/1.1/DTD/svg11.dtd">
<svg version="1.1" id="Layer_144" xmlns="http://www.w3.org/2000/svg" xmlns:xlink="http://www.w3.org/1999/xlink" x="0px" y="0px"
	 width="169px" height="79px" viewBox="0 0 169 79" enable-background="new 0 0 169 79" xml:space="preserve">
<g id="Logo">
	<g>
		<path fill-rule="evenodd" clip-rule="evenodd" fill="#FFFFFF" d="M159.749,54.953c-1.742-1.855-4.229-2.08-7.003-2.08h-0.236
			c-1.894-2-4.913-4.154-8.978-4.401c-3.494-0.226-6.362-0.225-8.835,0.831c0.083-0.669,0.152-1.546,0.209-2.225
			c0.519,0.208,1.059,0.211,1.636,0.211c3.067,0,6.287-2.584,6.566-8.248c0.133-3.125-0.38-5.411-1.484-6.563
			c-0.536-0.558-1.208-0.867-1.943-0.867c-1.646,0-3.188,1.443-4.394,4.055c-0.004-0.286-0.008-0.539-0.012-0.769
			c-0.008-0.479-0.015-0.872-0.015-1.314c0-1.105-0.053-1.731-1.137-1.731c-0.391,0-0.784,0.175-1.081,0.479
			c-0.293,0.303-0.637,0.885-0.606,1.939c0.027,1.384,0.032,2.785,0.017,4.281c-0.499,2.245-1.405,4.011-2.34,4.698
			c0.501-1.187,0.874-2.611,1.113-4.254c0.416-3.022-0.042-5.638-1.227-6.996c-0.568-0.652-1.255-0.948-1.986-0.818
			c-0.845,0.152-1.546,0.605-2.11,1.259c-0.202-0.405-0.723-0.559-1.251-0.341c-2.581,1.023-4.222,4.027-4.39,8.038
			c-0.101,2.489,0.569,4.615,1.886,5.988c0.883,0.919,1.973,1.404,3.153,1.404c1.361,0,2.652-0.767,3.656-2.164
			c1.195-0.035,2.364-0.745,3.352-2.005c-0.119,2.493-0.31,4.939-0.566,7.297c-2.012,1.485-3.711,3.626-5.191,6.54
			c-1.982,3.934-1.764,7.546-0.722,9.24c0.442,0.719,1.038,1.114,1.677,1.114c3.089,0,5.57-8.574,6.777-16.015
			c2.368-1.427,5.19-2.1,8.433-1.97c2.786,0.103,5.165,0.871,6.81,2.184c-3.227,1.043-5.45,3.689-5.887,7.093
			c-0.23,1.738,0.179,3.352,1.123,4.43c0.85,0.971,2.04,1.468,3.51,1.395c1.745-0.079,3.25-0.774,4.354-2.008
			c1.362-1.523,2.02-3.786,1.849-6.372c-0.069-1-0.271-1.927-0.604-2.766c3.907,0.64,6.258,3.985,6.055,8.758
			c-0.277,5.81-5.351,9.407-9.894,9.407c-2.997,0-5.195-0.733-6.357-2.12c-1.053-1.257-1.055-2.751-0.873-3.772
			c0.029-0.145,0.058-0.27,0.083-0.378c0.089-0.384,0.158-0.688-0.052-0.951c-0.086-0.108-0.247-0.237-0.531-0.237
			c-0.096,0-0.204,0.014-0.386,0.055c-1.232,0.36-2.479,1.573-2.479,3.194c0,2.938,3.13,6.1,10.002,6.1
			c7.138,0,12.436-4.329,12.885-11.1C162.52,59.346,161.606,56.932,159.749,54.953z M135.17,43.84
			c1.053-6.795,3.107-9.673,3.748-9.673c0.033,0,0.121,0,0.244,0.132c0.456,0.486,0.868,2.161,0.656,5.401
			c-0.248,3.479-1.489,5.557-3.318,5.557c-0.6,0-1.049-0.125-1.395-0.391L135.17,43.84z M125.939,45.002
			c-0.512,0-0.926-0.322-1.183-0.592c-0.904-0.949-1.386-2.72-1.286-4.741c0.094-2.293,0.582-4.185,1.321-5.254
			c-0.588,1.599-0.773,3.568-0.58,5.411c0.22,2.192,1.204,4.026,2.586,4.921C126.51,44.914,126.218,45.002,125.939,45.002z
			 M129.172,39.153c-0.12,2.045-0.576,3.342-1.008,4.131c-1.172-0.72-1.665-2.503-1.727-3.915c-0.126-2.523,0.94-4.694,1.789-4.938
			c0.071,0,0.149,0.068,0.203,0.126C128.897,35.054,129.329,36.705,129.172,39.153z M128.161,64.344
			c-0.098-0.012-0.192-0.09-0.28-0.232c-0.485-0.785-0.561-3.245,1.219-6.806c0.588-1.176,1.306-2.252,2.143-3.214
			C130.204,60.728,128.744,64.06,128.161,64.344z M150.785,61.565c-0.565,0.6-1.269,0.916-2.037,0.916l-0.106-0.002
			c-0.813-0.016-1.452-0.297-1.901-0.837c-0.593-0.714-0.801-1.822-0.583-3.126c0.4-2.603,2.284-4.494,4.95-5.001
			c0.599,0.962,0.938,2.084,1.013,3.342C152.237,58.825,151.75,60.541,150.785,61.565z M120.086,47.366
			c-0.706-0.257-1.437-1.93-0.902-8.442c0.288-3.707,0.407-5.851-0.485-6.815c-0.314-0.338-0.732-0.51-1.242-0.51
			c-2.143,0-4.206,2.606-5.644,5.731c0.035-2.446,0.19-4.771,0.461-6.927c2.198-1.028,3.92-2.765,5.118-5.162
			c1.819-3.574,1.584-7.381,0.411-9.294c-0.453-0.739-1.043-1.146-1.662-1.146c-2.716,0-5.229,5.687-6.433,14.522
			c-1.155,0.276-2.406,0.304-3.616,0.077c-0.313-0.056-0.609-0.135-0.89-0.235c1.645-1.01,2.795-3.107,2.913-5.475
			c0.119-1.785-0.37-3.341-1.413-4.498c-1.162-1.289-2.982-2.016-5.263-2.1c-0.119-0.004-0.24-0.006-0.361-0.006
			c-4.45,0-9.151,2.404-9.528,6.991c-0.385,4.034,3.192,6.385,6.652,8.658l0.694,0.457c3.307,2.219,6.235,4.527,5.763,8.348
			c-0.383,3.135-4.333,5.658-8.542,5.332c-2.141-0.168-3.985-1.078-5.195-2.563c-1.162-1.427-1.671-3.255-1.433-5.144
			c0.267-1.976,1.129-3.487,3.094-5.41c0.374-0.4,0.693-0.83,0.507-1.26c-0.076-0.175-0.263-0.487-0.986-0.382
			c-0.592,0.085-2.424,0.683-3.02,1.228c-1.697,1.538-2.179,3.661-2.284,5.178c-0.237,4.214,1.929,9.557,8.813,10.745
			c0.692,0.118,1.396,0.179,2.091,0.179c5.606,0,10.063-3.778,10.369-8.787c0.271-4.695-3.352-7.339-6.771-9.45l-0.375-0.227
			c-3.318-2.01-6.453-3.908-5.965-7.635c0.385-2.85,3.108-4.125,5.637-4.125c0.179,0,0.358,0.006,0.539,0.017
			c2.803,0.18,4.368,1.782,4.409,4.513c0.015,1.247-0.377,2.396-1.047,3.074c-0.316,0.32-0.676,0.504-0.984,0.504
			c-0.446,0-0.71-0.386-0.833-0.659c-0.228-0.71-0.248-1.492-0.063-2.181l0.081-0.25c0.147-0.451,0.245-0.749,0.039-1.033
			c-0.069-0.094-0.231-0.254-0.54-0.254c-0.099,0-0.214,0.014-0.389,0.052c-0.862,0.215-2.184,1.076-2.288,2.588
			c-0.086,2.378,1.342,5.12,5.606,5.688c1.499,0.209,2.996,0.194,4.374-0.04c-0.273,2.5-0.447,5.151-0.522,7.891
			c-0.034,1.627-0.06,2.582-0.081,3.298c-0.03,1.081-0.046,1.618-0.046,3.075c0,1.246,0.185,1.688,1.222,1.688
			c0.569,0,1.548-0.478,1.597-2.208c1.029-6.823,3.849-10.595,4.576-10.633c0.133,0.197,0.03,1.196-0.061,2.078
			c-0.098,0.949-0.22,2.13-0.25,3.55c-0.125,5.843,1.006,8.811,3.452,9.075c1.211,0.149,1.436-0.403,1.482-0.624
			C120.904,48.275,120.946,47.748,120.086,47.366z M115.582,17.963c0.033,0.01,0.157,0.105,0.292,0.409
			c0.457,1.033,0.641,3.76-0.816,6.674c-0.63,1.259-1.456,2.266-2.465,3.003C113.567,21.773,115.037,18.209,115.582,17.963z
			 M86.853,32.388l-0.149-0.192c-0.154-0.196-0.416-0.288-0.823-0.288c-0.871,0-2.301,0.416-2.428,1.512
			c-0.121,0.765-0.25,2.065-0.342,3.452c-0.653,5.234-2.203,8.13-3.025,8.13c-0.295,0-0.528-0.108-0.733-0.341
			c-1.068-1.212-1.183-5.218-0.341-11.899l0.017-0.271l-0.149-0.173c-0.151-0.174-0.397-0.255-0.775-0.255
			c-0.882,0-2.33,0.42-2.46,1.553c-0.271,2.591-0.334,4.887-0.19,6.827c-0.593,1.903-1.922,4.984-4.317,4.984
			c-0.617,0-1.207-0.272-1.705-0.787c-1.004-1.038-1.559-2.961-1.485-5.14c0.162-3.704,1.283-6.605,2.554-6.605
			c0.41,0,0.573,0.163,0.66,0.286c0.402,0.57,0.227,1.958-0.153,3.028l-0.085,0.226c-0.176,0.467-0.292,0.776-0.088,1.071
			c0.089,0.128,0.292,0.35,0.903,0.215c0.746-0.14,2.269-0.94,2.4-1.938c0.042-0.56,0.092-2.479-1.028-3.689
			c-0.567-0.611-1.316-0.921-2.228-0.921c-3.25,0-5.89,3.797-6.142,8.84c-0.011,0.323-0.008,0.636,0.005,0.94
			c-0.887,3.469-1.614,4.68-1.901,4.94c-0.238-0.398-0.552-2.322,0.433-7.49l0.015-0.278l-0.149-0.173
			c-0.162-0.185-0.444-0.276-0.865-0.276c-0.966,0-2.091,0.441-2.278,1.416c-0.063,0.343-0.082,0.599-0.103,0.873l-0.024,0.315
			c-0.553,3.1-1.664,4.722-2.477,4.722c-0.122,0-0.283-0.103-0.44-0.28c-0.668-0.755-1.243-2.725-0.93-5.268
			c0.409-3.416,1.795-5.711,3.449-5.711c0.506,0,0.845,0.111,1.007,0.332c0.23,0.313,0.202,0.94-0.076,1.838l-0.05,0.135
			c-0.211,0.567-0.338,0.91-0.116,1.23c0.092,0.131,0.356,0.349,0.897,0.233c0.751-0.14,2.269-1.026,2.4-2.031
			c0.054-0.927-0.237-1.777-0.82-2.396c-0.458-0.484-1.325-1.061-2.86-1.061c-2.827,0-6.365,2.139-7.02,8.196
			c-1.059,3.519-2.406,5.159-2.982,5.159c-0.762,0-1.956-2.252-2.253-7.255c1.848-3.023,4.26-8.364,5.367-12.886
			c0.824-3.547,1.377-9.307,0.024-11.009c-0.367-0.463-0.795-0.56-1.09-0.56c-3.947,0-7.127,12.153-7.669,20.868
			c-0.08,1.385-0.061,2.743,0.058,4.037c-0.884,4.186-2.549,6.853-3.315,6.853c-0.716,0-1.839-2.135-2.122-6.881
			c1.76-2.881,4.057-7.965,5.112-12.272c0.786-3.384,1.311-8.88,0.018-10.508c-0.356-0.447-0.771-0.541-1.057-0.541
			c-3.774,0-6.812,11.589-7.328,19.898c-0.348,6.009,1.305,10.023,2.826,11.634c0.661,0.7,1.382,1.07,2.084,1.07
			c1.842,0,3.5-2.5,4.574-5.107c0.962,3.124,2.596,5.128,4.281,5.128c1.282,0,2.661-1.237,3.876-3.441
			c0.728,2.059,2.158,3.127,3.394,3.127c0.054,0,0.108-0.002,0.17-0.007c1.179-0.104,2.307-1.015,3.258-2.606
			c0.384,2.142,1.215,3.415,2.297,3.415c1.318,0,2.429-1.845,3.229-3.772c1.009,2.096,2.837,3.39,4.914,3.39
			c2.065,0,4.039-1.473,5.54-4.09c0.923,3.044,2.593,3.538,3.579,3.538c0.982,0,1.945-0.712,2.814-2.049l-0.029,0.277
			c-2.473,2.814-4.367,6.054-5.631,9.629c-1.05,2.935-1.024,6.062,0.062,7.606c0.42,0.596,0.972,0.911,1.596,0.911
			c1.851,0,4.649-2.534,7.579-24.439c0.46-3.182,0.802-6.653,0.797-6.653L86.853,32.388z M51.271,17.062
			c0.321,0.863,0.396,4.251-0.656,8.299c-0.591,2.397-1.78,5.738-3.006,8.527C47.967,27.318,50.182,18.421,51.271,17.062z
			 M42.316,18.531c0.291,0.879,0.341,4.073-0.64,7.848c-0.555,2.25-1.661,5.369-2.809,7.998
			C39.227,28.212,41.282,19.922,42.316,18.531z M78.972,60.612c-0.07-0.007-0.189-0.075-0.311-0.25
			c-0.466-0.67-0.614-2.328,0.368-4.973c0.724-1.97,1.725-4.039,2.848-5.91C80.762,57.158,79.535,60.385,78.972,60.612z
			 M68.828,51.681c-0.237-0.178-0.425-0.317-0.671-0.317c-0.401,0-0.559,0.339-0.662,0.563c-0.053,0.114-0.124,0.268-0.244,0.473
			c-0.597,1.076-2.532,1.622-5.755,1.622c-3.767,0-8.777-0.758-13.181-1.5c-5.299-0.902-11.342-1.861-16.306-2.207
			c0.906-3.967,1.568-9.097,2.024-15.684c0-0.594-0.903-0.727-1.22-0.727c-0.399,0-1.707,0.165-1.785,2.288l-0.132,2.548
			c-0.466,2.514-1.867,6.761-6.016,6.964c-0.093,0.005-0.185,0.007-0.277,0.007c0,0,0,0,0,0c-1.627-0.001-3-0.62-4.081-1.842
			c-1.966-2.223-2.794-6.368-2.215-11.088c0.205-1.638,0.558-3.211,1.078-4.794c6.623-0.152,12.936-3.159,14.472-6.93
			c0.592-1.442,0.521-2.882-0.195-3.949c-0.9-1.34-2.717-1.936-4.95-1.636c-4.624,0.597-9.214,4.479-11.788,9.939
			c-2.911-0.823-5.416-3.297-4.78-6.646c0.918-4.905,7.433-6.508,9.575-6.508c0.412,0,0.582,0.054,0.626,0.07
			c0.287,0.109,0.617,0.17,0.929,0.17c0.635,0,1.07-0.246,1.163-0.659c0.163-0.721-0.817-1.187-1.195-1.366
			c-0.257-0.115-0.633-0.172-1.152-0.172c-2.919,0-11.343,2.038-12.655,8.602c-0.395,1.975-0.086,3.731,0.917,5.222
			c1.133,1.682,3.177,2.957,5.666,3.549c-0.596,1.66-1.007,3.509-1.224,5.505c-0.54,4.97,0.538,9.365,2.956,12.061
			c1.656,1.845,3.872,2.821,6.408,2.821l0.301-0.005c2.278-0.107,4.261-1.009,5.819-2.626c-0.225,1.796-0.496,3.377-0.822,4.789
			c-0.362-0.008-0.717-0.012-1.064-0.012c-5.931,0-9.245,1.228-10.428,3.856c-0.682,1.459-0.583,3.009,0.28,4.364
			c1.069,1.68,3.117,2.765,5.219,2.765c0.323,0,0.647-0.026,0.968-0.079c3.221-0.576,5.467-3.345,7.048-8.701
			c4.363,0.209,9.853,0.984,16.325,2.306c0.975,0.202,1.958,0.412,2.939,0.621c5.341,1.137,10.386,2.21,14.055,2.21
			c2.11,0,3.572-0.365,4.466-1.112c0.892-0.725,1.052-1.587,1.029-2.182C70.255,53.281,69.675,52.267,68.828,51.681z M28.071,17.906
			c0.299-0.053,0.58-0.081,0.836-0.081c0.5,0,1.166,0.107,1.497,0.617c0.326,0.503,0.281,1.312-0.12,2.21
			c-1.309,2.744-6.05,4.726-10.004,5.039C22.234,21.522,25.303,18.433,28.071,17.906z M24.74,58.514
			c-0.364,0.125-0.732,0.189-1.092,0.189c-1.002,0-1.873-0.485-2.33-1.296c-0.488-0.866-0.403-1.965,0.231-3.01
			c0.542-0.877,2.266-1.914,7.354-1.998C27.86,55.841,26.46,57.896,24.74,58.514z"/>
	</g>
</g>
</svg>
